# xmcd CD database file
# Copyright (C) 1993-1998 Ti Kan
# 
# Track frame offsets:
#     150
#     20045
#     43112
#     63620
#     93387
#     113862
#     140705
#     162367
#     176682
#     198305
# 
# Disc length: 2955 seconds
# 
# Revision: 1
# Processed by: cddbd v1.4b41PL1 Copyright (c) Steve Scherf et al.
# Submitted via: DiscPlay 4.0.3
# 
DISCID=920b890a
DTITLE=Michael Fuller - Days into Years
DYEAR=1900
DGENRE=
TTITLE0=When I Feel this Way
TTITLE1=Days into Years
TTITLE2=Handle the Rest
TTITLE3=Cold as Cold can Be
TTITLE4=Woman who can't be True
TTITLE5=Been down so Long
TTITLE6=Seems like I'm Losin You
TTITLE7=Traditional Irish piece
TTITLE8=Let Love Come In
TTITLE9=Samsara
EXTD=
EXTT0=
EXTT1=
EXTT2=
EXTT3=
EXTT4=
EXTT5=
EXTT6=
EXTT7=
EXTT8=
EXTT9=
PLAYORDER=
